<svg class="marks" width="1359" height="617" viewBox="0 0 1359 617" version="1.1" xmlns="http://www.w3.org/2000/svg" xmlns:xlink="http://www.w3.org/1999/xlink"><rect width="1359" height="617" style="fill: white;"></rect><defs><linearGradient id="gradient_0" x1="0" x2="0" y1="1" y2="0"><stop offset="0" stop-color="rgb(239, 249, 189)"></stop><stop offset="0.05555555555555554" stop-color="rgb(228, 245, 184)"></stop><stop offset="0.11111111111111112" stop-color="rgb(216, 240, 180)"></stop><stop offset="0.16666666666666666" stop-color="rgb(199, 233, 181)"></stop><stop offset="0.2222222222222222" stop-color="rgb(180, 225, 182)"></stop><stop offset="0.27777777777777773" stop-color="rgb(157, 217, 184)"></stop><stop offset="0.33333333333333337" stop-color="rgb(134, 208, 187)"></stop><stop offset="0.38888888888888884" stop-color="rgb(110, 199, 189)"></stop><stop offset="0.4444444444444445" stop-color="rgb(89, 189, 192)"></stop><stop offset="0.5000000000000001" stop-color="rgb(69, 180, 194)"></stop><stop offset="0.5555555555555556" stop-color="rgb(55, 168, 193)"></stop><stop offset="0.6111111111111112" stop-color="rgb(43, 155, 191)"></stop><stop offset="0.6666666666666666" stop-color="rgb(37, 139, 187)"></stop><stop offset="0.7222222222222222" stop-color="rgb(33, 123, 181)"></stop><stop offset="0.7777777777777778" stop-color="rgb(33, 106, 173)"></stop><stop offset="0.8333333333333333" stop-color="rgb(34, 90, 165)"></stop><stop offset="0.888888888888889" stop-color="rgb(35, 74, 158)"></stop><stop offset="0.9444444444444444" stop-color="rgb(32, 61, 146)"></stop><stop offset="1" stop-color="rgb(28, 49, 133)"></stop></linearGradient></defs><g transform="translate(6,6)"><g class="mark-group role-frame root"><g transform="translate(0,0)"><path class="background" d="M0,0h0v0h0Z" style="fill: none;"></path><g><g class="mark-group role-scope concat_0_group"><g transform="translate(0,0)"><path class="background" d="M0,0h0v0h0Z" style="fill: none;"></path><g><g class="mark-group role-scope concat_0_concat_0_group"><g transform="translate(0,0)"><path class="background" d="M0.5,0.5h300v200h-300Z" style="fill: none; stroke: #ddd;"></path><g><g class="mark-rect role-mark concat_0_concat_0_layer_0_marks"><path d="M0,0h150v200h-150Z" style="fill: rgb(124, 204, 188);"></path><path d="M150,0h150v200h-150Z" style="fill: rgb(189, 229, 181);"></path></g><g class="mark-text role-mark concat_0_concat_0_layer_1_marks"><text text-anchor="middle" transform="translate(75,103)" style="font-family: sans-serif; font-size: 11px; fill: black;">0.42</text><text text-anchor="middle" transform="translate(225,103)" style="font-family: sans-serif; font-size: 11px; fill: black;">0.28</text></g><g class="mark-group role-axis"><g transform="translate(0.5,200.5)"><path class="background" d="M0,0h0v0h0Z" style="pointer-events: none; fill: none;"></path><g><g class="mark-rule role-axis-tick" style="pointer-events: none;"><line transform="translate(75,0)" x2="0" y2="5" style="fill: none; stroke: #888; stroke-width: 1; opacity: 1;"></line><line transform="translate(225,0)" x2="0" y2="5" style="fill: none; stroke: #888; stroke-width: 1; opacity: 1;"></line></g><g class="mark-text role-axis-label" style="pointer-events: none;"><text text-anchor="end" transform="translate(74.5,7) rotate(270) translate(0,3)" style="font-family: sans-serif; font-size: 10px; fill: #000; opacity: 1;">City Hotel</text><text text-anchor="end" transform="translate(224.5,7) rotate(270) translate(0,3)" style="font-family: sans-serif; font-size: 10px; fill: #000; opacity: 1;">Resort Hotel</text></g><g class="mark-rule role-axis-domain" style="pointer-events: none;"><line transform="translate(0,0)" x2="300" y2="0" style="fill: none; stroke: #888; stroke-width: 1; opacity: 1;"></line></g><g class="mark-text role-axis-title" style="pointer-events: none;"><text text-anchor="middle" transform="translate(150,75.576171875)" style="font-family: sans-serif; font-size: 11px; font-weight: bold; fill: #000; opacity: 1;">hotel</text></g></g><path class="foreground" d="" style="pointer-events: none; display: none; fill: none;"></path></g></g></g><path class="foreground" d="" style="display: none; fill: none;"></path></g></g><g class="mark-group role-scope concat_0_concat_1_group"><g transform="translate(322,0)"><path class="background" d="M0.5,0.5h300v200h-300Z" style="fill: none; stroke: #ddd;"></path><g><g class="mark-rect role-mark concat_0_concat_1_layer_0_marks"><path d="M0,0h60v200h-60Z" style="fill: rgb(148, 213, 185);"></path><path d="M60,0h60v200h-60Z" style="fill: rgb(50, 163, 192);"></path><path d="M120,0h60v200h-60Z" style="fill: rgb(162, 218, 184);"></path><path d="M180,0h60v200h-60Z" style="fill: rgb(148, 213, 185);"></path><path d="M240,0h60v200h-60Z" style="fill: rgb(196, 232, 181);"></path></g><g class="mark-text role-mark concat_0_concat_1_layer_1_marks"><text text-anchor="middle" transform="translate(30,103)" style="font-family: sans-serif; font-size: 11px; fill: black;">0.37</text><text text-anchor="middle" transform="translate(90,103)" style="font-family: sans-serif; font-size: 11px; fill: black;">0.62</text><text text-anchor="middle" transform="translate(150,103)" style="font-family: sans-serif; font-size: 11px; fill: black;">0.34</text><text text-anchor="middle" transform="translate(210,103)" style="font-family: sans-serif; font-size: 11px; fill: black;">0.37</text><text text-anchor="middle" transform="translate(270,103)" style="font-family: sans-serif; font-size: 11px; fill: black;">0.26</text></g><g class="mark-group role-axis"><g transform="translate(0.5,200.5)"><path class="background" d="M0,0h0v0h0Z" style="pointer-events: none; fill: none;"></path><g><g class="mark-rule role-axis-tick" style="pointer-events: none;"><line transform="translate(30,0)" x2="0" y2="5" style="fill: none; stroke: #888; stroke-width: 1; opacity: 1;"></line><line transform="translate(90,0)" x2="0" y2="5" style="fill: none; stroke: #888; stroke-width: 1; opacity: 1;"></line><line transform="translate(150,0)" x2="0" y2="5" style="fill: none; stroke: #888; stroke-width: 1; opacity: 1;"></line><line transform="translate(210,0)" x2="0" y2="5" style="fill: none; stroke: #888; stroke-width: 1; opacity: 1;"></line><line transform="translate(270,0)" x2="0" y2="5" style="fill: none; stroke: #888; stroke-width: 1; opacity: 1;"></line></g><g class="mark-text role-axis-label" style="pointer-events: none;"><text text-anchor="end" transform="translate(29.5,7) rotate(270) translate(0,3)" style="font-family: sans-serif; font-size: 10px; fill: #000; opacity: 1;">BB</text><text text-anchor="end" transform="translate(89.5,7) rotate(270) translate(0,3)" style="font-family: sans-serif; font-size: 10px; fill: #000; opacity: 1;">FB</text><text text-anchor="end" transform="translate(149.5,7) rotate(270) translate(0,3)" style="font-family: sans-serif; font-size: 10px; fill: #000; opacity: 1;">HB</text><text text-anchor="end" transform="translate(209.5,7) rotate(270) translate(0,3)" style="font-family: sans-serif; font-size: 10px; fill: #000; opacity: 1;">SC</text><text text-anchor="end" transform="translate(269.5,7) rotate(270) translate(0,3)" style="font-family: sans-serif; font-size: 10px; fill: #000; opacity: 1;">Undefined</text></g><g class="mark-rule role-axis-domain" style="pointer-events: none;"><line transform="translate(0,0)" x2="300" y2="0" style="fill: none; stroke: #888; stroke-width: 1; opacity: 1;"></line></g><g class="mark-text role-axis-title" style="pointer-events: none;"><text text-anchor="middle" transform="translate(150,65.5908203125)" style="font-family: sans-serif; font-size: 11px; font-weight: bold; fill: #000; opacity: 1;">meal</text></g></g><path class="foreground" d="" style="pointer-events: none; display: none; fill: none;"></path></g></g></g><path class="foreground" d="" style="display: none; fill: none;"></path></g></g><g class="mark-group role-scope concat_0_concat_2_group"><g transform="translate(644,0)"><path class="background" d="M0.5,0.5h300v200h-300Z" style="fill: none; stroke: #ddd;"></path><g><g class="mark-rect role-mark concat_0_concat_2_layer_0_marks"><path d="M0,0h37.5v200h-37.5Z" style="fill: rgb(209, 237, 180);"></path><path d="M37.5,0h37.5v200h-37.5Z" style="fill: rgb(232, 246, 186);"></path><path d="M75,0h37.5v200h-37.5Z" style="fill: rgb(219, 241, 180);"></path><path d="M112.5,0h37.5v200h-37.5Z" style="fill: rgb(228, 245, 184);"></path><path d="M150,0h37.5v200h-37.5Z" style="fill: rgb(52, 165, 193);"></path><path d="M187.5,0h37.5v200h-37.5Z" style="fill: rgb(162, 218, 184);"></path><path d="M225,0h37.5v200h-37.5Z" style="fill: rgb(148, 213, 185);"></path><path d="M262.5,0h37.5v200h-37.5Z" style="fill: rgb(28, 49, 133);"></path></g><g class="mark-text role-mark concat_0_concat_2_layer_1_marks"><text text-anchor="middle" transform="translate(18.75,103)" style="font-family: sans-serif; font-size: 11px; fill: black;">0.22</text><text text-anchor="middle" transform="translate(56.25,103)" style="font-family: sans-serif; font-size: 11px; fill: black;">0.13</text><text text-anchor="middle" transform="translate(93.75,103)" style="font-family: sans-serif; font-size: 11px; fill: black;">0.19</text><text text-anchor="middle" transform="translate(131.25,103)" style="font-family: sans-serif; font-size: 11px; fill: black;">0.15</text><text text-anchor="middle" transform="translate(168.75,103)" style="font-family: sans-serif; font-size: 11px; fill: black;">0.61</text><text text-anchor="middle" transform="translate(206.25,103)" style="font-family: sans-serif; font-size: 11px; fill: black;">0.34</text><text text-anchor="middle" transform="translate(243.75,103)" style="font-family: sans-serif; font-size: 11px; fill: black;">0.37</text><text text-anchor="middle" transform="translate(281.25,103)" style="font-family: sans-serif; font-size: 11px; fill: black;">1</text></g><g class="mark-group role-axis"><g transform="translate(0.5,200.5)"><path class="background" d="M0,0h0v0h0Z" style="pointer-events: none; fill: none;"></path><g><g class="mark-rule role-axis-tick" style="pointer-events: none;"><line transform="translate(18,0)" x2="0" y2="5" style="fill: none; stroke: #888; stroke-width: 1; opacity: 1;"></line><line transform="translate(56,0)" x2="0" y2="5" style="fill: none; stroke: #888; stroke-width: 1; opacity: 1;"></line><line transform="translate(93,0)" x2="0" y2="5" style="fill: none; stroke: #888; stroke-width: 1; opacity: 1;"></line><line transform="translate(131,0)" x2="0" y2="5" style="fill: none; stroke: #888; stroke-width: 1; opacity: 1;"></line><line transform="translate(168,0)" x2="0" y2="5" style="fill: none; stroke: #888; stroke-width: 1; opacity: 1;"></line><line transform="translate(206,0)" x2="0" y2="5" style="fill: none; stroke: #888; stroke-width: 1; opacity: 1;"></line><line transform="translate(243,0)" x2="0" y2="5" style="fill: none; stroke: #888; stroke-width: 1; opacity: 1;"></line><line transform="translate(281,0)" x2="0" y2="5" style="fill: none; stroke: #888; stroke-width: 1; opacity: 1;"></line></g><g class="mark-text role-axis-label" style="pointer-events: none;"><text text-anchor="end" transform="translate(18.25,7) rotate(270) translate(0,3)" style="font-family: sans-serif; font-size: 10px; fill: #000; opacity: 1;">Aviation</text><text text-anchor="end" transform="translate(55.75,7) rotate(270) translate(0,3)" style="font-family: sans-serif; font-size: 10px; fill: #000; opacity: 1;">Complementary</text><text text-anchor="end" transform="translate(93.25,7) rotate(270) translate(0,3)" style="font-family: sans-serif; font-size: 10px; fill: #000; opacity: 1;">Corporate</text><text text-anchor="end" transform="translate(130.75,7) rotate(270) translate(0,3)" style="font-family: sans-serif; font-size: 10px; fill: #000; opacity: 1;">Direct</text><text text-anchor="end" transform="translate(168.25,7) rotate(270) translate(0,3)" style="font-family: sans-serif; font-size: 10px; fill: #000; opacity: 1;">Groups</text><text text-anchor="end" transform="translate(205.75,7) rotate(270) translate(0,3)" style="font-family: sans-serif; font-size: 10px; fill: #000; opacity: 1;">Offline TA/TO</text><text text-anchor="end" transform="translate(243.25,7) rotate(270) translate(0,3)" style="font-family: sans-serif; font-size: 10px; fill: #000; opacity: 1;">Online TA</text><text text-anchor="end" transform="translate(280.75,7) rotate(270) translate(0,3)" style="font-family: sans-serif; font-size: 10px; fill: #000; opacity: 1;">Undefined</text></g><g class="mark-rule role-axis-domain" style="pointer-events: none;"><line transform="translate(0,0)" x2="300" y2="0" style="fill: none; stroke: #888; stroke-width: 1; opacity: 1;"></line></g><g class="mark-text role-axis-title" style="pointer-events: none;"><text text-anchor="middle" transform="translate(150,90.5810546875)" style="font-family: sans-serif; font-size: 11px; font-weight: bold; fill: #000; opacity: 1;">market_segment</text></g></g><path class="foreground" d="" style="pointer-events: none; display: none; fill: none;"></path></g></g></g><path class="foreground" d="" style="display: none; fill: none;"></path></g></g><g class="mark-group role-scope concat_0_concat_3_group"><g transform="translate(966,0)"><path class="background" d="M0.5,0.5h300v200h-300Z" style="fill: none; stroke: #ddd;"></path><g><g class="mark-rect role-mark concat_0_concat_3_layer_0_marks"><path d="M0,0h60v200h-60Z" style="fill: rgb(209, 237, 180);"></path><path d="M60,0h60v200h-60Z" style="fill: rgb(221, 242, 181);"></path><path d="M120,0h60v200h-60Z" style="fill: rgb(206, 236, 180);"></path><path d="M180,0h60v200h-60Z" style="fill: rgb(129, 206, 187);"></path><path d="M240,0h60v200h-60Z" style="fill: rgb(33, 123, 181);"></path></g><g class="mark-text role-mark concat_0_concat_3_layer_1_marks"><text text-anchor="middle" transform="translate(30,103)" style="font-family: sans-serif; font-size: 11px; fill: black;">0.22</text><text text-anchor="middle" transform="translate(90,103)" style="font-family: sans-serif; font-size: 11px; fill: black;">0.18</text><text text-anchor="middle" transform="translate(150,103)" style="font-family: sans-serif; font-size: 11px; fill: black;">0.23</text><text text-anchor="middle" transform="translate(210,103)" style="font-family: sans-serif; font-size: 11px; fill: black;">0.41</text><text text-anchor="middle" transform="translate(270,103)" style="font-family: sans-serif; font-size: 11px; fill: black;">0.75</text></g><g class="mark-group role-axis"><g transform="translate(0.5,200.5)"><path class="background" d="M0,0h0v0h0Z" style="pointer-events: none; fill: none;"></path><g><g class="mark-rule role-axis-tick" style="pointer-events: none;"><line transform="translate(30,0)" x2="0" y2="5" style="fill: none; stroke: #888; stroke-width: 1; opacity: 1;"></line><line transform="translate(90,0)" x2="0" y2="5" style="fill: none; stroke: #888; stroke-width: 1; opacity: 1;"></line><line transform="translate(150,0)" x2="0" y2="5" style="fill: none; stroke: #888; stroke-width: 1; opacity: 1;"></line><line transform="translate(210,0)" x2="0" y2="5" style="fill: none; stroke: #888; stroke-width: 1; opacity: 1;"></line><line transform="translate(270,0)" x2="0" y2="5" style="fill: none; stroke: #888; stroke-width: 1; opacity: 1;"></line></g><g class="mark-text role-axis-label" style="pointer-events: none;"><text text-anchor="end" transform="translate(29.5,7) rotate(270) translate(0,3)" style="font-family: sans-serif; font-size: 10px; fill: #000; opacity: 1;">Corporate</text><text text-anchor="end" transform="translate(89.5,7) rotate(270) translate(0,3)" style="font-family: sans-serif; font-size: 10px; fill: #000; opacity: 1;">Direct</text><text text-anchor="end" transform="translate(149.5,7) rotate(270) translate(0,3)" style="font-family: sans-serif; font-size: 10px; fill: #000; opacity: 1;">GDS</text><text text-anchor="end" transform="translate(209.5,7) rotate(270) translate(0,3)" style="font-family: sans-serif; font-size: 10px; fill: #000; opacity: 1;">TA/TO</text><text text-anchor="end" transform="translate(269.5,7) rotate(270) translate(0,3)" style="font-family: sans-serif; font-size: 10px; fill: #000; opacity: 1;">Undefined</text></g><g class="mark-rule role-axis-domain" style="pointer-events: none;"><line transform="translate(0,0)" x2="300" y2="0" style="fill: none; stroke: #888; stroke-width: 1; opacity: 1;"></line></g><g class="mark-text role-axis-title" style="pointer-events: none;"><text text-anchor="middle" transform="translate(150,65.5908203125)" style="font-family: sans-serif; font-size: 11px; font-weight: bold; fill: #000; opacity: 1;">distribution_channel</text></g></g><path class="foreground" d="" style="pointer-events: none; display: none; fill: none;"></path></g></g></g><path class="foreground" d="" style="display: none; fill: none;"></path></g></g></g><path class="foreground" d="" style="display: none; fill: none;"></path></g></g><g class="mark-group role-scope concat_1_group"><g transform="translate(0,315)"><path class="background" d="M0,0h0v0h0Z" style="fill: none;"></path><g><g class="mark-group role-scope concat_1_concat_0_group"><g transform="translate(0,0)"><path class="background" d="M0.5,0.5h300v200h-300Z" style="fill: none; stroke: #ddd;"></path><g><g class="mark-rect role-mark concat_1_concat_0_layer_0_marks"><path d="M0,0h30v200h-30Z" style="fill: rgb(138, 209, 186);"></path><path d="M30,0h30v200h-30Z" style="fill: rgb(162, 218, 184);"></path><path d="M60,0h30v200h-30Z" style="fill: rgb(166, 220, 183);"></path><path d="M90,0h30v200h-30Z" style="fill: rgb(171, 222, 183);"></path><path d="M120,0h30v200h-30Z" style="fill: rgb(184, 227, 181);"></path><path d="M150,0h30v200h-30Z" style="fill: rgb(180, 225, 182);"></path><path d="M180,0h30v200h-30Z" style="fill: rgb(148, 213, 185);"></path><path d="M210,0h30v200h-30Z" style="fill: rgb(129, 206, 187);"></path><path d="M240,0h30v200h-30Z" style="fill: rgb(134, 208, 187);"></path><path d="M270,0h30v200h-30Z" style="fill: rgb(28, 49, 133);"></path></g><g class="mark-text role-mark concat_1_concat_0_layer_1_marks"><text text-anchor="middle" transform="translate(15,103)" style="font-family: sans-serif; font-size: 11px; fill: black;">0.39</text><text text-anchor="middle" transform="translate(45,103)" style="font-family: sans-serif; font-size: 11px; fill: black;">0.34</text><text text-anchor="middle" transform="translate(75,103)" style="font-family: sans-serif; font-size: 11px; fill: black;">0.33</text><text text-anchor="middle" transform="translate(105,103)" style="font-family: sans-serif; font-size: 11px; fill: black;">0.32</text><text text-anchor="middle" transform="translate(135,103)" style="font-family: sans-serif; font-size: 11px; fill: black;">0.29</text><text text-anchor="middle" transform="translate(165,103)" style="font-family: sans-serif; font-size: 11px; fill: black;">0.3</text><text text-anchor="middle" transform="translate(195,103)" style="font-family: sans-serif; font-size: 11px; fill: black;">0.37</text><text text-anchor="middle" transform="translate(225,103)" style="font-family: sans-serif; font-size: 11px; fill: black;">0.41</text><text text-anchor="middle" transform="translate(255,103)" style="font-family: sans-serif; font-size: 11px; fill: black;">0.4</text><text text-anchor="middle" transform="translate(285,103)" style="font-family: sans-serif; font-size: 11px; fill: black;">1</text></g><g class="mark-group role-axis"><g transform="translate(0.5,200.5)"><path class="background" d="M0,0h0v0h0Z" style="pointer-events: none; fill: none;"></path><g><g class="mark-rule role-axis-tick" style="pointer-events: none;"><line transform="translate(15,0)" x2="0" y2="5" style="fill: none; stroke: #888; stroke-width: 1; opacity: 1;"></line><line transform="translate(45,0)" x2="0" y2="5" style="fill: none; stroke: #888; stroke-width: 1; opacity: 1;"></line><line transform="translate(75,0)" x2="0" y2="5" style="fill: none; stroke: #888; stroke-width: 1; opacity: 1;"></line><line transform="translate(105,0)" x2="0" y2="5" style="fill: none; stroke: #888; stroke-width: 1; opacity: 1;"></line><line transform="translate(135,0)" x2="0" y2="5" style="fill: none; stroke: #888; stroke-width: 1; opacity: 1;"></line><line transform="translate(165,0)" x2="0" y2="5" style="fill: none; stroke: #888; stroke-width: 1; opacity: 1;"></line><line transform="translate(195,0)" x2="0" y2="5" style="fill: none; stroke: #888; stroke-width: 1; opacity: 1;"></line><line transform="translate(225,0)" x2="0" y2="5" style="fill: none; stroke: #888; stroke-width: 1; opacity: 1;"></line><line transform="translate(255,0)" x2="0" y2="5" style="fill: none; stroke: #888; stroke-width: 1; opacity: 1;"></line><line transform="translate(285,0)" x2="0" y2="5" style="fill: none; stroke: #888; stroke-width: 1; opacity: 1;"></line></g><g class="mark-text role-axis-label" style="pointer-events: none;"><text text-anchor="end" transform="translate(14.5,7) rotate(270) translate(0,3)" style="font-family: sans-serif; font-size: 10px; fill: #000; opacity: 1;">A</text><text text-anchor="end" transform="translate(44.5,7) rotate(270) translate(0,3)" style="font-family: sans-serif; font-size: 10px; fill: #000; opacity: 1;">B</text><text text-anchor="end" transform="translate(74.5,7) rotate(270) translate(0,3)" style="font-family: sans-serif; font-size: 10px; fill: #000; opacity: 1;">C</text><text text-anchor="end" transform="translate(104.5,7) rotate(270) translate(0,3)" style="font-family: sans-serif; font-size: 10px; fill: #000; opacity: 1;">D</text><text text-anchor="end" transform="translate(134.5,7) rotate(270) translate(0,3)" style="font-family: sans-serif; font-size: 10px; fill: #000; opacity: 1;">E</text><text text-anchor="end" transform="translate(164.5,7) rotate(270) translate(0,3)" style="font-family: sans-serif; font-size: 10px; fill: #000; opacity: 1;">F</text><text text-anchor="end" transform="translate(194.5,7) rotate(270) translate(0,3)" style="font-family: sans-serif; font-size: 10px; fill: #000; opacity: 1;">G</text><text text-anchor="end" transform="translate(224.5,7) rotate(270) translate(0,3)" style="font-family: sans-serif; font-size: 10px; fill: #000; opacity: 1;">H</text><text text-anchor="end" transform="translate(254.5,7) rotate(270) translate(0,3)" style="font-family: sans-serif; font-size: 10px; fill: #000; opacity: 1;">L</text><text text-anchor="end" transform="translate(284.5,7) rotate(270) translate(0,3)" style="font-family: sans-serif; font-size: 10px; fill: #000; opacity: 1;">P</text></g><g class="mark-rule role-axis-domain" style="pointer-events: none;"><line transform="translate(0,0)" x2="300" y2="0" style="fill: none; stroke: #888; stroke-width: 1; opacity: 1;"></line></g><g class="mark-text role-axis-title" style="pointer-events: none;"><text text-anchor="middle" transform="translate(150,27.7783203125)" style="font-family: sans-serif; font-size: 11px; font-weight: bold; fill: #000; opacity: 1;">reserved_room_type</text></g></g><path class="foreground" d="" style="pointer-events: none; display: none; fill: none;"></path></g></g></g><path class="foreground" d="" style="display: none; fill: none;"></path></g></g><g class="mark-group role-scope concat_1_concat_1_group"><g transform="translate(322,0)"><path class="background" d="M0.5,0.5h300v200h-300Z" style="fill: none; stroke: #ddd;"></path><g><g class="mark-rect role-mark concat_1_concat_1_layer_0_marks"><path d="M0,0h100v200h-100Z" style="fill: rgb(189, 229, 181);"></path><path d="M100,0h100v200h-100Z" style="fill: rgb(29, 51, 136);"></path><path d="M200,0h100v200h-100Z" style="fill: rgb(206, 236, 180);"></path></g><g class="mark-text role-mark concat_1_concat_1_layer_1_marks"><text text-anchor="middle" transform="translate(50,103)" style="font-family: sans-serif; font-size: 11px; fill: black;">0.28</text><text text-anchor="middle" transform="translate(150,103)" style="font-family: sans-serif; font-size: 11px; fill: black;">0.99</text><text text-anchor="middle" transform="translate(250,103)" style="font-family: sans-serif; font-size: 11px; fill: black;">0.23</text></g><g class="mark-group role-axis"><g transform="translate(0.5,200.5)"><path class="background" d="M0,0h0v0h0Z" style="pointer-events: none; fill: none;"></path><g><g class="mark-rule role-axis-tick" style="pointer-events: none;"><line transform="translate(50,0)" x2="0" y2="5" style="fill: none; stroke: #888; stroke-width: 1; opacity: 1;"></line><line transform="translate(150,0)" x2="0" y2="5" style="fill: none; stroke: #888; stroke-width: 1; opacity: 1;"></line><line transform="translate(250,0)" x2="0" y2="5" style="fill: none; stroke: #888; stroke-width: 1; opacity: 1;"></line></g><g class="mark-text role-axis-label" style="pointer-events: none;"><text text-anchor="end" transform="translate(49.5,7) rotate(270) translate(0,3)" style="font-family: sans-serif; font-size: 10px; fill: #000; opacity: 1;">No Deposit</text><text text-anchor="end" transform="translate(149.5,7) rotate(270) translate(0,3)" style="font-family: sans-serif; font-size: 10px; fill: #000; opacity: 1;">Non Refund</text><text text-anchor="end" transform="translate(249.5,7) rotate(270) translate(0,3)" style="font-family: sans-serif; font-size: 10px; fill: #000; opacity: 1;">Refundable</text></g><g class="mark-rule role-axis-domain" style="pointer-events: none;"><line transform="translate(0,0)" x2="300" y2="0" style="fill: none; stroke: #888; stroke-width: 1; opacity: 1;"></line></g><g class="mark-text role-axis-title" style="pointer-events: none;"><text text-anchor="middle" transform="translate(150,73.369140625)" style="font-family: sans-serif; font-size: 11px; font-weight: bold; fill: #000; opacity: 1;">deposit_type</text></g></g><path class="foreground" d="" style="pointer-events: none; display: none; fill: none;"></path></g></g></g><path class="foreground" d="" style="display: none; fill: none;"></path></g></g><g class="mark-group role-scope concat_1_concat_2_group"><g transform="translate(644,0)"><path class="background" d="M0.5,0.5h300v200h-300Z" style="fill: none; stroke: #ddd;"></path><g><g class="mark-rect role-mark concat_1_concat_2_layer_0_marks"><path d="M0,0h75v200h-75Z" style="fill: rgb(171, 222, 183);"></path><path d="M75,0h75v200h-75Z" style="fill: rgb(239, 249, 189);"></path><path d="M150,0h75v200h-75Z" style="fill: rgb(129, 206, 187);"></path><path d="M225,0h75v200h-75Z" style="fill: rgb(199, 233, 181);"></path></g><g class="mark-text role-mark concat_1_concat_2_layer_1_marks"><text text-anchor="middle" transform="translate(37.5,103)" style="font-family: sans-serif; font-size: 11px; fill: black;">0.32</text><text text-anchor="middle" transform="translate(112.5,103)" style="font-family: sans-serif; font-size: 11px; fill: black;">0.1</text><text text-anchor="middle" transform="translate(187.5,103)" style="font-family: sans-serif; font-size: 11px; fill: black;">0.41</text><text text-anchor="middle" transform="translate(262.5,103)" style="font-family: sans-serif; font-size: 11px; fill: black;">0.25</text></g><g class="mark-group role-axis"><g transform="translate(0.5,200.5)"><path class="background" d="M0,0h0v0h0Z" style="pointer-events: none; fill: none;"></path><g><g class="mark-rule role-axis-tick" style="pointer-events: none;"><line transform="translate(37,0)" x2="0" y2="5" style="fill: none; stroke: #888; stroke-width: 1; opacity: 1;"></line><line transform="translate(112,0)" x2="0" y2="5" style="fill: none; stroke: #888; stroke-width: 1; opacity: 1;"></line><line transform="translate(187,0)" x2="0" y2="5" style="fill: none; stroke: #888; stroke-width: 1; opacity: 1;"></line><line transform="translate(262,0)" x2="0" y2="5" style="fill: none; stroke: #888; stroke-width: 1; opacity: 1;"></line></g><g class="mark-text role-axis-label" style="pointer-events: none;"><text text-anchor="end" transform="translate(37,7) rotate(270) translate(0,3)" style="font-family: sans-serif; font-size: 10px; fill: #000; opacity: 1;">Contract</text><text text-anchor="end" transform="translate(112,7) rotate(270) translate(0,3)" style="font-family: sans-serif; font-size: 10px; fill: #000; opacity: 1;">Group</text><text text-anchor="end" transform="translate(187,7) rotate(270) translate(0,3)" style="font-family: sans-serif; font-size: 10px; fill: #000; opacity: 1;">Transient</text><text text-anchor="end" transform="translate(262,7) rotate(270) translate(0,3)" style="font-family: sans-serif; font-size: 10px; fill: #000; opacity: 1;">Transient-Party</text></g><g class="mark-rule role-axis-domain" style="pointer-events: none;"><line transform="translate(0,0)" x2="300" y2="0" style="fill: none; stroke: #888; stroke-width: 1; opacity: 1;"></line></g><g class="mark-text role-axis-title" style="pointer-events: none;"><text text-anchor="middle" transform="translate(150,87.9833984375)" style="font-family: sans-serif; font-size: 11px; font-weight: bold; fill: #000; opacity: 1;">customer_type</text></g></g><path class="foreground" d="" style="pointer-events: none; display: none; fill: none;"></path></g></g></g><path class="foreground" d="" style="display: none; fill: none;"></path></g></g><g class="mark-group role-scope concat_1_concat_3_group"><g transform="translate(966,0)"><path class="background" d="M0.5,0.5h300v200h-300Z" style="fill: none; stroke: #ddd;"></path><g><g class="mark-rect role-mark concat_1_concat_3_layer_0_marks"><path d="M0,0h150v200h-150Z" style="fill: rgb(143, 211, 186);"></path><path d="M150,0h150v200h-150Z" style="fill: rgb(228, 245, 184);"></path></g><g class="mark-text role-mark concat_1_concat_3_layer_1_marks"><text text-anchor="middle" transform="translate(75,103)" style="font-family: sans-serif; font-size: 11px; fill: black;">0.38</text><text text-anchor="middle" transform="translate(225,103)" style="font-family: sans-serif; font-size: 11px; fill: black;">0.15</text></g><g class="mark-group role-axis"><g transform="translate(0.5,200.5)"><path class="background" d="M0,0h0v0h0Z" style="pointer-events: none; fill: none;"></path><g><g class="mark-rule role-axis-tick" style="pointer-events: none;"><line transform="translate(75,0)" x2="0" y2="5" style="fill: none; stroke: #888; stroke-width: 1; opacity: 1;"></line><line transform="translate(225,0)" x2="0" y2="5" style="fill: none; stroke: #888; stroke-width: 1; opacity: 1;"></line></g><g class="mark-text role-axis-label" style="pointer-events: none;"><text text-anchor="end" transform="translate(74.5,7) rotate(270) translate(0,3)" style="font-family: sans-serif; font-size: 10px; fill: #000; opacity: 1;">0</text><text text-anchor="end" transform="translate(224.5,7) rotate(270) translate(0,3)" style="font-family: sans-serif; font-size: 10px; fill: #000; opacity: 1;">1</text></g><g class="mark-rule role-axis-domain" style="pointer-events: none;"><line transform="translate(0,0)" x2="300" y2="0" style="fill: none; stroke: #888; stroke-width: 1; opacity: 1;"></line></g><g class="mark-text role-axis-title" style="pointer-events: none;"><text text-anchor="middle" transform="translate(150,25.5615234375)" style="font-family: sans-serif; font-size: 11px; font-weight: bold; fill: #000; opacity: 1;">is_repeated_guest</text></g></g><path class="foreground" d="" style="pointer-events: none; display: none; fill: none;"></path></g></g></g><path class="foreground" d="" style="display: none; fill: none;"></path></g></g></g><path class="foreground" d="" style="display: none; fill: none;"></path></g></g><g class="mark-group role-legend"><g transform="translate(1285,0)"><path class="background" d="M0,0h63v216h-63Z" style="pointer-events: none; fill: none;"></path><g><g class="mark-group role-legend-entry"><g transform="translate(0,16)"><path class="background" d="M0,0h0v0h0Z" style="pointer-events: none; fill: none;"></path><g><g class="mark-rect role-legend-gradient" style="pointer-events: none;"><path d="M0,0h16v200h-16Z" style="fill: url(#gradient_0); stroke: #ddd; stroke-width: 0; opacity: 1;"></path></g><g class="mark-text role-legend-label" style="pointer-events: none;"><text text-anchor="start" transform="translate(18,180.77777777777777)" style="font-family: sans-serif; font-size: 10px; fill: #000; opacity: 1;">0.2</text><text text-anchor="start" transform="translate(18,136.33333333333331)" style="font-family: sans-serif; font-size: 10px; fill: #000; opacity: 1;">0.4</text><text text-anchor="start" transform="translate(18,91.88888888888889)" style="font-family: sans-serif; font-size: 10px; fill: #000; opacity: 1;">0.6</text><text text-anchor="start" transform="translate(18,47.44444444444444)" style="font-family: sans-serif; font-size: 10px; fill: #000; opacity: 1;">0.8</text><text text-anchor="start" transform="translate(18,8)" style="font-family: sans-serif; font-size: 10px; fill: #000; opacity: 1;">1.0</text></g></g><path class="foreground" d="" style="pointer-events: none; display: none; fill: none;"></path></g></g><g class="mark-text role-legend-title" style="pointer-events: none;"><text text-anchor="start" transform="translate(0,9)" style="font-family: sans-serif; font-size: 11px; font-weight: bold; fill: #000; opacity: 1;">Cancel Rate</text></g></g><path class="foreground" d="" style="pointer-events: none; display: none; fill: none;"></path></g></g></g><path class="foreground" d="" style="display: none; fill: none;"></path></g></g></g></svg>