<svg class="marks" width="1336" height="618" viewBox="0 0 1336 618" version="1.1" xmlns="http://www.w3.org/2000/svg" xmlns:xlink="http://www.w3.org/1999/xlink"><defs><linearGradient id="gradient_0" x1="0" x2="0" y1="1" y2="0"><stop offset="0" stop-color="rgb(239, 249, 189)"></stop><stop offset="0.08347387579942224" stop-color="rgb(222, 242, 181)"></stop><stop offset="0.16696444971362734" stop-color="rgb(199, 233, 181)"></stop><stop offset="0.2504550236278324" stop-color="rgb(168, 221, 183)"></stop><stop offset="0.3339455975420375" stop-color="rgb(133, 208, 187)"></stop><stop offset="0.41743617145624257" stop-color="rgb(99, 194, 191)"></stop><stop offset="0.5009267453704477" stop-color="rgb(69, 180, 194)"></stop><stop offset="0.5844173192846528" stop-color="rgb(48, 161, 192)"></stop><stop offset="0.6679078931988578" stop-color="rgb(37, 139, 187)"></stop><stop offset="0.7513984671130629" stop-color="rgb(33, 114, 177)"></stop><stop offset="0.834889041027268" stop-color="rgb(34, 89, 165)"></stop><stop offset="0.9183796149414731" stop-color="rgb(34, 67, 152)"></stop><stop offset="1" stop-color="rgb(28, 49, 133)"></stop></linearGradient></defs><g transform="translate(109,6)"><g class="mark-group role-frame root"><g transform="translate(0,0)"><path class="background" d="M0,0h150v150h-150Z" style="fill: none;"></path><g><g class="mark-group role-scope child__repeat_repeat_hotel_group"><g transform="translate(0,0)"><path class="background" d="M0.5,0.5h150v150h-150Z" style="fill: none; stroke: #ddd;"></path><g><g class="mark-rect role-mark child__repeat_repeat_hotel_marks"><path d="M75,75h75v75h-75Z" style="fill: rgb(112, 200, 189);"></path><path d="M75,0h75v75h-75Z" style="fill: rgb(204, 235, 180);"></path><path d="M0,0h75v75h-75Z" style="fill: rgb(89, 190, 192);"></path><path d="M0,75h75v75h-75Z" style="fill: rgb(42, 153, 190);"></path></g><g class="mark-group role-axis"><g transform="translate(0.5,150.5)"><path class="background" d="M0,0h0v0h0Z" style="pointer-events: none; fill: none;"></path><g><g class="mark-rule role-axis-tick" style="pointer-events: none;"><line transform="translate(37,0)" x2="0" y2="5" style="fill: none; stroke: #888; stroke-width: 1; opacity: 1;"></line><line transform="translate(112,0)" x2="0" y2="5" style="fill: none; stroke: #888; stroke-width: 1; opacity: 1;"></line></g><g class="mark-text role-axis-label" style="pointer-events: none;"><text text-anchor="end" transform="translate(36.5,7) rotate(270) translate(0,3)" style="font-family: sans-serif; font-size: 10px; fill: #000; opacity: 1;">City Hotel</text><text text-anchor="end" transform="translate(111.5,7) rotate(270) translate(0,3)" style="font-family: sans-serif; font-size: 10px; fill: #000; opacity: 1;">Resort Hotel</text></g><g class="mark-rule role-axis-domain" style="pointer-events: none;"><line transform="translate(0,0)" x2="150" y2="0" style="fill: none; stroke: #888; stroke-width: 1; opacity: 1;"></line></g><g class="mark-text role-axis-title" style="pointer-events: none;"><text text-anchor="middle" transform="translate(75,116)" style="font-family: sans-serif; font-size: 11px; font-weight: bold; fill: #000; opacity: 1;">hotel</text></g></g></g></g><g class="mark-group role-axis"><g transform="translate(0.5,0.5)"><path class="background" d="M0,0h0v0h0Z" style="pointer-events: none; fill: none;"></path><g><g class="mark-rule role-axis-tick" style="pointer-events: none;"><line transform="translate(0,37)" x2="-5" y2="0" style="fill: none; stroke: #888; stroke-width: 1; opacity: 1;"></line><line transform="translate(0,112)" x2="-5" y2="0" style="fill: none; stroke: #888; stroke-width: 1; opacity: 1;"></line></g><g class="mark-text role-axis-label" style="pointer-events: none;"><text text-anchor="end" transform="translate(-7,39.5)" style="font-family: sans-serif; font-size: 10px; fill: #000; opacity: 1;">Canceled</text><text text-anchor="end" transform="translate(-7,114.5)" style="font-family: sans-serif; font-size: 10px; fill: #000; opacity: 1;">Not Canceled</text></g><g class="mark-rule role-axis-domain" style="pointer-events: none;"><line transform="translate(0,0)" x2="0" y2="150" style="fill: none; stroke: #888; stroke-width: 1; opacity: 1;"></line></g></g></g></g></g></g></g><g class="mark-group role-scope child__repeat_repeat_meal_group"><g transform="translate(288,0)"><path class="background" d="M0.5,0.5h150v150h-150Z" style="fill: none; stroke: #ddd;"></path><g><g class="mark-rect role-mark child__repeat_repeat_meal_marks"><path d="M0,75h30v75h-30Z" style="fill: rgb(33, 108, 174);"></path><path d="M60,75h30v75h-30Z" style="fill: rgb(211, 238, 180);"></path><path d="M0,0h30v75h-30Z" style="fill: rgb(83, 187, 192);"></path><path d="M60,0h30v75h-30Z" style="fill: rgb(226, 244, 183);"></path><path d="M90,0h30v75h-30Z" style="fill: rgb(228, 245, 184);"></path><path d="M30,0h30v75h-30Z" style="fill: rgb(238, 248, 188);"></path><path d="M90,75h30v75h-30Z" style="fill: rgb(221, 242, 181);"></path><path d="M120,75h30v75h-30Z" style="fill: rgb(237, 248, 188);"></path><path d="M30,75h30v75h-30Z" style="fill: rgb(238, 249, 189);"></path><path d="M120,0h30v75h-30Z" style="fill: rgb(238, 249, 189);"></path></g><g class="mark-group role-axis"><g transform="translate(0.5,150.5)"><path class="background" d="M0,0h0v0h0Z" style="pointer-events: none; fill: none;"></path><g><g class="mark-rule role-axis-tick" style="pointer-events: none;"><line transform="translate(14,0)" x2="0" y2="5" style="fill: none; stroke: #888; stroke-width: 1; opacity: 1;"></line><line transform="translate(44,0)" x2="0" y2="5" style="fill: none; stroke: #888; stroke-width: 1; opacity: 1;"></line><line transform="translate(74,0)" x2="0" y2="5" style="fill: none; stroke: #888; stroke-width: 1; opacity: 1;"></line><line transform="translate(104,0)" x2="0" y2="5" style="fill: none; stroke: #888; stroke-width: 1; opacity: 1;"></line><line transform="translate(134,0)" x2="0" y2="5" style="fill: none; stroke: #888; stroke-width: 1; opacity: 1;"></line></g><g class="mark-text role-axis-label" style="pointer-events: none;"><text text-anchor="end" transform="translate(14,7) rotate(270) translate(0,3)" style="font-family: sans-serif; font-size: 10px; fill: #000; opacity: 1;">BB</text><text text-anchor="end" transform="translate(44,7) rotate(270) translate(0,3)" style="font-family: sans-serif; font-size: 10px; fill: #000; opacity: 1;">FB</text><text text-anchor="end" transform="translate(74,7) rotate(270) translate(0,3)" style="font-family: sans-serif; font-size: 10px; fill: #000; opacity: 1;">HB</text><text text-anchor="end" transform="translate(104,7) rotate(270) translate(0,3)" style="font-family: sans-serif; font-size: 10px; fill: #000; opacity: 1;">SC</text><text text-anchor="end" transform="translate(134,7) rotate(270) translate(0,3)" style="font-family: sans-serif; font-size: 10px; fill: #000; opacity: 1;">Undefined</text></g><g class="mark-rule role-axis-domain" style="pointer-events: none;"><line transform="translate(0,0)" x2="150" y2="0" style="fill: none; stroke: #888; stroke-width: 1; opacity: 1;"></line></g><g class="mark-text role-axis-title" style="pointer-events: none;"><text text-anchor="middle" transform="translate(75,92)" style="font-family: sans-serif; font-size: 11px; font-weight: bold; fill: #000; opacity: 1;">meal</text></g></g></g></g><g class="mark-group role-axis"><g transform="translate(0.5,0.5)"><path class="background" d="M0,0h0v0h0Z" style="pointer-events: none; fill: none;"></path><g><g class="mark-rule role-axis-tick" style="pointer-events: none;"><line transform="translate(0,37)" x2="-5" y2="0" style="fill: none; stroke: #888; stroke-width: 1; opacity: 1;"></line><line transform="translate(0,112)" x2="-5" y2="0" style="fill: none; stroke: #888; stroke-width: 1; opacity: 1;"></line></g><g class="mark-text role-axis-label" style="pointer-events: none;"><text text-anchor="end" transform="translate(-7,39.5)" style="font-family: sans-serif; font-size: 10px; fill: #000; opacity: 1;">Canceled</text><text text-anchor="end" transform="translate(-7,114.5)" style="font-family: sans-serif; font-size: 10px; fill: #000; opacity: 1;">Not Canceled</text></g><g class="mark-rule role-axis-domain" style="pointer-events: none;"><line transform="translate(0,0)" x2="0" y2="150" style="fill: none; stroke: #888; stroke-width: 1; opacity: 1;"></line></g></g></g></g></g></g></g><g class="mark-group role-scope child__repeat_repeat_market_segment_group"><g transform="translate(576,0)"><path class="background" d="M0.5,0.5h150v150h-150Z" style="fill: none; stroke: #ddd;"></path><g><g class="mark-rect role-mark child__repeat_repeat_market_segment_marks"><path d="M56.25,75h18.75v75h-18.75Z" style="fill: rgb(206, 236, 180);"></path><path d="M112.5,75h18.75v75h-18.75Z" style="fill: rgb(77, 184, 193);"></path><path d="M112.5,0h18.75v75h-18.75Z" style="fill: rgb(157, 217, 184);"></path><path d="M75,0h18.75v75h-18.75Z" style="fill: rgb(200, 234, 181);"></path><path d="M93.75,75h18.75v75h-18.75Z" style="fill: rgb(184, 227, 181);"></path><path d="M93.75,0h18.75v75h-18.75Z" style="fill: rgb(216, 240, 180);"></path><path d="M56.25,0h18.75v75h-18.75Z" style="fill: rgb(234, 247, 187);"></path><path d="M75,75h18.75v75h-18.75Z" style="fill: rgb(218, 241, 180);"></path><path d="M37.5,75h18.75v75h-18.75Z" style="fill: rgb(228, 244, 184);"></path><path d="M18.75,75h18.75v75h-18.75Z" style="fill: rgb(237, 248, 188);"></path><path d="M37.5,0h18.75v75h-18.75Z" style="fill: rgb(236, 248, 188);"></path><path d="M0,75h18.75v75h-18.75Z" style="fill: rgb(239, 249, 189);"></path><path d="M0,0h18.75v75h-18.75Z" style="fill: rgb(239, 249, 189);"></path><path d="M18.75,0h18.75v75h-18.75Z" style="fill: rgb(239, 249, 189);"></path><path d="M131.25,0h18.75v75h-18.75Z" style="fill: rgb(239, 249, 189);"></path></g><g class="mark-group role-axis"><g transform="translate(0.5,150.5)"><path class="background" d="M0,0h0v0h0Z" style="pointer-events: none; fill: none;"></path><g><g class="mark-rule role-axis-tick" style="pointer-events: none;"><line transform="translate(8,0)" x2="0" y2="5" style="fill: none; stroke: #888; stroke-width: 1; opacity: 1;"></line><line transform="translate(27,0)" x2="0" y2="5" style="fill: none; stroke: #888; stroke-width: 1; opacity: 1;"></line><line transform="translate(46,0)" x2="0" y2="5" style="fill: none; stroke: #888; stroke-width: 1; opacity: 1;"></line><line transform="translate(65,0)" x2="0" y2="5" style="fill: none; stroke: #888; stroke-width: 1; opacity: 1;"></line><line transform="translate(83,0)" x2="0" y2="5" style="fill: none; stroke: #888; stroke-width: 1; opacity: 1;"></line><line transform="translate(102,0)" x2="0" y2="5" style="fill: none; stroke: #888; stroke-width: 1; opacity: 1;"></line><line transform="translate(121,0)" x2="0" y2="5" style="fill: none; stroke: #888; stroke-width: 1; opacity: 1;"></line><line transform="translate(140,0)" x2="0" y2="5" style="fill: none; stroke: #888; stroke-width: 1; opacity: 1;"></line></g><g class="mark-text role-axis-label" style="pointer-events: none;"><text text-anchor="end" transform="translate(8.375,7) rotate(270) translate(0,3)" style="font-family: sans-serif; font-size: 10px; fill: #000; opacity: 1;">Aviation</text><text text-anchor="end" transform="translate(27.125,7) rotate(270) translate(0,3)" style="font-family: sans-serif; font-size: 10px; fill: #000; opacity: 1;">Complementary</text><text text-anchor="end" transform="translate(45.875,7) rotate(270) translate(0,3)" style="font-family: sans-serif; font-size: 10px; fill: #000; opacity: 1;">Corporate</text><text text-anchor="end" transform="translate(64.625,7) rotate(270) translate(0,3)" style="font-family: sans-serif; font-size: 10px; fill: #000; opacity: 1;">Direct</text><text text-anchor="end" transform="translate(83.375,7) rotate(270) translate(0,3)" style="font-family: sans-serif; font-size: 10px; fill: #000; opacity: 1;">Groups</text><text text-anchor="end" transform="translate(102.125,7) rotate(270) translate(0,3)" style="font-family: sans-serif; font-size: 10px; fill: #000; opacity: 1;">Offline TA/TO</text><text text-anchor="end" transform="translate(120.875,7) rotate(270) translate(0,3)" style="font-family: sans-serif; font-size: 10px; fill: #000; opacity: 1;">Online TA</text><text text-anchor="end" transform="translate(139.625,7) rotate(270) translate(0,3)" style="font-family: sans-serif; font-size: 10px; fill: #000; opacity: 1;">Undefined</text></g><g class="mark-rule role-axis-domain" style="pointer-events: none;"><line transform="translate(0,0)" x2="150" y2="0" style="fill: none; stroke: #888; stroke-width: 1; opacity: 1;"></line></g><g class="mark-text role-axis-title" style="pointer-events: none;"><text text-anchor="middle" transform="translate(75,124)" style="font-family: sans-serif; font-size: 11px; font-weight: bold; fill: #000; opacity: 1;">market_segment</text></g></g></g></g><g class="mark-group role-axis"><g transform="translate(0.5,0.5)"><path class="background" d="M0,0h0v0h0Z" style="pointer-events: none; fill: none;"></path><g><g class="mark-rule role-axis-tick" style="pointer-events: none;"><line transform="translate(0,37)" x2="-5" y2="0" style="fill: none; stroke: #888; stroke-width: 1; opacity: 1;"></line><line transform="translate(0,112)" x2="-5" y2="0" style="fill: none; stroke: #888; stroke-width: 1; opacity: 1;"></line></g><g class="mark-text role-axis-label" style="pointer-events: none;"><text text-anchor="end" transform="translate(-7,39.5)" style="font-family: sans-serif; font-size: 10px; fill: #000; opacity: 1;">Canceled</text><text text-anchor="end" transform="translate(-7,114.5)" style="font-family: sans-serif; font-size: 10px; fill: #000; opacity: 1;">Not Canceled</text></g><g class="mark-rule role-axis-domain" style="pointer-events: none;"><line transform="translate(0,0)" x2="0" y2="150" style="fill: none; stroke: #888; stroke-width: 1; opacity: 1;"></line></g></g></g></g></g></g></g><g class="mark-group role-scope child__repeat_repeat_distribution_channel_group"><g transform="translate(864,0)"><path class="background" d="M0.5,0.5h150v150h-150Z" style="fill: none; stroke: #ddd;"></path><g><g class="mark-rect role-mark child__repeat_repeat_distribution_channel_marks"><path d="M30,75h30v75h-30Z" style="fill: rgb(201, 234, 181);"></path><path d="M90,75h30v75h-30Z" style="fill: rgb(33, 108, 174);"></path><path d="M90,0h30v75h-30Z" style="fill: rgb(60, 172, 193);"></path><path d="M30,0h30v75h-30Z" style="fill: rgb(232, 246, 186);"></path><path d="M0,75h30v75h-30Z" style="fill: rgb(225, 243, 183);"></path><path d="M0,0h30v75h-30Z" style="fill: rgb(235, 247, 187);"></path><path d="M60,75h30v75h-30Z" style="fill: rgb(239, 249, 189);"></path><path d="M60,0h30v75h-30Z" style="fill: rgb(239, 249, 189);"></path><path d="M120,0h30v75h-30Z" style="fill: rgb(239, 249, 189);"></path><path d="M120,75h30v75h-30Z" style="fill: rgb(239, 249, 189);"></path></g><g class="mark-group role-axis"><g transform="translate(0.5,150.5)"><path class="background" d="M0,0h0v0h0Z" style="pointer-events: none; fill: none;"></path><g><g class="mark-rule role-axis-tick" style="pointer-events: none;"><line transform="translate(14,0)" x2="0" y2="5" style="fill: none; stroke: #888; stroke-width: 1; opacity: 1;"></line><line transform="translate(44,0)" x2="0" y2="5" style="fill: none; stroke: #888; stroke-width: 1; opacity: 1;"></line><line transform="translate(74,0)" x2="0" y2="5" style="fill: none; stroke: #888; stroke-width: 1; opacity: 1;"></line><line transform="translate(104,0)" x2="0" y2="5" style="fill: none; stroke: #888; stroke-width: 1; opacity: 1;"></line><line transform="translate(134,0)" x2="0" y2="5" style="fill: none; stroke: #888; stroke-width: 1; opacity: 1;"></line></g><g class="mark-text role-axis-label" style="pointer-events: none;"><text text-anchor="end" transform="translate(14,7) rotate(270) translate(0,3)" style="font-family: sans-serif; font-size: 10px; fill: #000; opacity: 1;">Corporate</text><text text-anchor="end" transform="translate(44,7) rotate(270) translate(0,3)" style="font-family: sans-serif; font-size: 10px; fill: #000; opacity: 1;">Direct</text><text text-anchor="end" transform="translate(74,7) rotate(270) translate(0,3)" style="font-family: sans-serif; font-size: 10px; fill: #000; opacity: 1;">GDS</text><text text-anchor="end" transform="translate(104,7) rotate(270) translate(0,3)" style="font-family: sans-serif; font-size: 10px; fill: #000; opacity: 1;">TA/TO</text><text text-anchor="end" transform="translate(134,7) rotate(270) translate(0,3)" style="font-family: sans-serif; font-size: 10px; fill: #000; opacity: 1;">Undefined</text></g><g class="mark-rule role-axis-domain" style="pointer-events: none;"><line transform="translate(0,0)" x2="150" y2="0" style="fill: none; stroke: #888; stroke-width: 1; opacity: 1;"></line></g><g class="mark-text role-axis-title" style="pointer-events: none;"><text text-anchor="middle" transform="translate(75,92)" style="font-family: sans-serif; font-size: 11px; font-weight: bold; fill: #000; opacity: 1;">distribution_channel</text></g></g></g></g><g class="mark-group role-axis"><g transform="translate(0.5,0.5)"><path class="background" d="M0,0h0v0h0Z" style="pointer-events: none; fill: none;"></path><g><g class="mark-rule role-axis-tick" style="pointer-events: none;"><line transform="translate(0,37)" x2="-5" y2="0" style="fill: none; stroke: #888; stroke-width: 1; opacity: 1;"></line><line transform="translate(0,112)" x2="-5" y2="0" style="fill: none; stroke: #888; stroke-width: 1; opacity: 1;"></line></g><g class="mark-text role-axis-label" style="pointer-events: none;"><text text-anchor="end" transform="translate(-7,39.5)" style="font-family: sans-serif; font-size: 10px; fill: #000; opacity: 1;">Canceled</text><text text-anchor="end" transform="translate(-7,114.5)" style="font-family: sans-serif; font-size: 10px; fill: #000; opacity: 1;">Not Canceled</text></g><g class="mark-rule role-axis-domain" style="pointer-events: none;"><line transform="translate(0,0)" x2="0" y2="150" style="fill: none; stroke: #888; stroke-width: 1; opacity: 1;"></line></g></g></g></g></g></g></g><g class="mark-group role-scope child__repeat_repeat_reserved_room_type_group"><g transform="translate(0,314)"><path class="background" d="M0.5,0.5h150v150h-150Z" style="fill: none; stroke: #ddd;"></path><g><g class="mark-rect role-mark child__repeat_repeat_reserved_room_type_marks"><path d="M60,75h15v75h-15Z" style="fill: rgb(227, 244, 183);"></path><path d="M0,0h15v75h-15Z" style="fill: rgb(87, 189, 192);"></path><path d="M0,75h15v75h-15Z" style="fill: rgb(33, 131, 184);"></path><path d="M75,0h15v75h-15Z" style="fill: rgb(237, 248, 188);"></path><path d="M45,75h15v75h-15Z" style="fill: rgb(196, 232, 181);"></path><path d="M45,0h15v75h-15Z" style="fill: rgb(223, 242, 182);"></path><path d="M75,75h15v75h-15Z" style="fill: rgb(234, 247, 187);"></path><path d="M15,75h15v75h-15Z" style="fill: rgb(237, 248, 188);"></path><path d="M30,75h15v75h-15Z" style="fill: rgb(237, 248, 188);"></path><path d="M60,0h15v75h-15Z" style="fill: rgb(234, 247, 187);"></path><path d="M90,75h15v75h-15Z" style="fill: rgb(236, 248, 187);"></path><path d="M105,0h15v75h-15Z" style="fill: rgb(238, 249, 189);"></path><path d="M30,0h15v75h-15Z" style="fill: rgb(238, 249, 189);"></path><path d="M90,0h15v75h-15Z" style="fill: rgb(237, 248, 188);"></path><path d="M105,75h15v75h-15Z" style="fill: rgb(238, 249, 189);"></path><path d="M135,0h15v75h-15Z" style="fill: rgb(239, 249, 189);"></path><path d="M15,0h15v75h-15Z" style="fill: rgb(238, 249, 189);"></path><path d="M120,75h15v75h-15Z" style="fill: rgb(239, 249, 189);"></path><path d="M120,0h15v75h-15Z" style="fill: rgb(239, 249, 189);"></path></g><g class="mark-group role-axis"><g transform="translate(0.5,150.5)"><path class="background" d="M0,0h0v0h0Z" style="pointer-events: none; fill: none;"></path><g><g class="mark-rule role-axis-tick" style="pointer-events: none;"><line transform="translate(7,0)" x2="0" y2="5" style="fill: none; stroke: #888; stroke-width: 1; opacity: 1;"></line><line transform="translate(22,0)" x2="0" y2="5" style="fill: none; stroke: #888; stroke-width: 1; opacity: 1;"></line><line transform="translate(37,0)" x2="0" y2="5" style="fill: none; stroke: #888; stroke-width: 1; opacity: 1;"></line><line transform="translate(52,0)" x2="0" y2="5" style="fill: none; stroke: #888; stroke-width: 1; opacity: 1;"></line><line transform="translate(67,0)" x2="0" y2="5" style="fill: none; stroke: #888; stroke-width: 1; opacity: 1;"></line><line transform="translate(82,0)" x2="0" y2="5" style="fill: none; stroke: #888; stroke-width: 1; opacity: 1;"></line><line transform="translate(97,0)" x2="0" y2="5" style="fill: none; stroke: #888; stroke-width: 1; opacity: 1;"></line><line transform="translate(112,0)" x2="0" y2="5" style="fill: none; stroke: #888; stroke-width: 1; opacity: 1;"></line><line transform="translate(127,0)" x2="0" y2="5" style="fill: none; stroke: #888; stroke-width: 1; opacity: 1;"></line><line transform="translate(142,0)" x2="0" y2="5" style="fill: none; stroke: #888; stroke-width: 1; opacity: 1;"></line></g><g class="mark-text role-axis-label" style="pointer-events: none;"><text text-anchor="end" transform="translate(6.5,7) rotate(270) translate(0,3)" style="font-family: sans-serif; font-size: 10px; fill: #000; opacity: 1;">A</text><text text-anchor="end" transform="translate(21.5,7) rotate(270) translate(0,3)" style="font-family: sans-serif; font-size: 10px; fill: #000; opacity: 1;">B</text><text text-anchor="end" transform="translate(36.5,7) rotate(270) translate(0,3)" style="font-family: sans-serif; font-size: 10px; fill: #000; opacity: 1;">C</text><text text-anchor="end" transform="translate(51.5,7) rotate(270) translate(0,3)" style="font-family: sans-serif; font-size: 10px; fill: #000; opacity: 1;">D</text><text text-anchor="end" transform="translate(66.5,7) rotate(270) translate(0,3)" style="font-family: sans-serif; font-size: 10px; fill: #000; opacity: 1;">E</text><text text-anchor="end" transform="translate(81.5,7) rotate(270) translate(0,3)" style="font-family: sans-serif; font-size: 10px; fill: #000; opacity: 1;">F</text><text text-anchor="end" transform="translate(96.5,7) rotate(270) translate(0,3)" style="font-family: sans-serif; font-size: 10px; fill: #000; opacity: 1;">G</text><text text-anchor="end" transform="translate(111.5,7) rotate(270) translate(0,3)" style="font-family: sans-serif; font-size: 10px; fill: #000; opacity: 1;">H</text><text text-anchor="end" transform="translate(126.5,7) rotate(270) translate(0,3)" style="font-family: sans-serif; font-size: 10px; fill: #000; opacity: 1;">L</text><text text-anchor="end" transform="translate(141.5,7) rotate(270) translate(0,3)" style="font-family: sans-serif; font-size: 10px; fill: #000; opacity: 1;">P</text></g><g class="mark-rule role-axis-domain" style="pointer-events: none;"><line transform="translate(0,0)" x2="150" y2="0" style="fill: none; stroke: #888; stroke-width: 1; opacity: 1;"></line></g><g class="mark-text role-axis-title" style="pointer-events: none;"><text text-anchor="middle" transform="translate(75,28)" style="font-family: sans-serif; font-size: 11px; font-weight: bold; fill: #000; opacity: 1;">reserved_room_type</text></g></g></g></g><g class="mark-group role-axis"><g transform="translate(0.5,0.5)"><path class="background" d="M0,0h0v0h0Z" style="pointer-events: none; fill: none;"></path><g><g class="mark-rule role-axis-tick" style="pointer-events: none;"><line transform="translate(0,37)" x2="-5" y2="0" style="fill: none; stroke: #888; stroke-width: 1; opacity: 1;"></line><line transform="translate(0,112)" x2="-5" y2="0" style="fill: none; stroke: #888; stroke-width: 1; opacity: 1;"></line></g><g class="mark-text role-axis-label" style="pointer-events: none;"><text text-anchor="end" transform="translate(-7,39.5)" style="font-family: sans-serif; font-size: 10px; fill: #000; opacity: 1;">Canceled</text><text text-anchor="end" transform="translate(-7,114.5)" style="font-family: sans-serif; font-size: 10px; fill: #000; opacity: 1;">Not Canceled</text></g><g class="mark-rule role-axis-domain" style="pointer-events: none;"><line transform="translate(0,0)" x2="0" y2="150" style="fill: none; stroke: #888; stroke-width: 1; opacity: 1;"></line></g></g></g></g></g></g></g><g class="mark-group role-scope child__repeat_repeat_deposit_type_group"><g transform="translate(288,314)"><path class="background" d="M0.5,0.5h150v150h-150Z" style="fill: none; stroke: #ddd;"></path><g><g class="mark-rect role-mark child__repeat_repeat_deposit_type_marks"><path d="M0,75h50v75h-50Z" style="fill: rgb(28, 49, 133);"></path><path d="M0,0h50v75h-50Z" style="fill: rgb(106, 198, 190);"></path><path d="M50,0h50v75h-50Z" style="fill: rgb(191, 230, 181);"></path><path d="M100,75h50v75h-50Z" style="fill: rgb(239, 249, 189);"></path><path d="M50,75h50v75h-50Z" style="fill: rgb(239, 249, 189);"></path><path d="M100,0h50v75h-50Z" style="fill: rgb(239, 249, 189);"></path></g><g class="mark-group role-axis"><g transform="translate(0.5,150.5)"><path class="background" d="M0,0h0v0h0Z" style="pointer-events: none; fill: none;"></path><g><g class="mark-rule role-axis-tick" style="pointer-events: none;"><line transform="translate(24,0)" x2="0" y2="5" style="fill: none; stroke: #888; stroke-width: 1; opacity: 1;"></line><line transform="translate(74,0)" x2="0" y2="5" style="fill: none; stroke: #888; stroke-width: 1; opacity: 1;"></line><line transform="translate(124,0)" x2="0" y2="5" style="fill: none; stroke: #888; stroke-width: 1; opacity: 1;"></line></g><g class="mark-text role-axis-label" style="pointer-events: none;"><text text-anchor="end" transform="translate(24,7) rotate(270) translate(0,3)" style="font-family: sans-serif; font-size: 10px; fill: #000; opacity: 1;">No Deposit</text><text text-anchor="end" transform="translate(74,7) rotate(270) translate(0,3)" style="font-family: sans-serif; font-size: 10px; fill: #000; opacity: 1;">Non Refund</text><text text-anchor="end" transform="translate(124,7) rotate(270) translate(0,3)" style="font-family: sans-serif; font-size: 10px; fill: #000; opacity: 1;">Refundable</text></g><g class="mark-rule role-axis-domain" style="pointer-events: none;"><line transform="translate(0,0)" x2="150" y2="0" style="fill: none; stroke: #888; stroke-width: 1; opacity: 1;"></line></g><g class="mark-text role-axis-title" style="pointer-events: none;"><text text-anchor="middle" transform="translate(75,100)" style="font-family: sans-serif; font-size: 11px; font-weight: bold; fill: #000; opacity: 1;">deposit_type</text></g></g></g></g><g class="mark-group role-axis"><g transform="translate(0.5,0.5)"><path class="background" d="M0,0h0v0h0Z" style="pointer-events: none; fill: none;"></path><g><g class="mark-rule role-axis-tick" style="pointer-events: none;"><line transform="translate(0,37)" x2="-5" y2="0" style="fill: none; stroke: #888; stroke-width: 1; opacity: 1;"></line><line transform="translate(0,112)" x2="-5" y2="0" style="fill: none; stroke: #888; stroke-width: 1; opacity: 1;"></line></g><g class="mark-text role-axis-label" style="pointer-events: none;"><text text-anchor="end" transform="translate(-7,39.5)" style="font-family: sans-serif; font-size: 10px; fill: #000; opacity: 1;">Canceled</text><text text-anchor="end" transform="translate(-7,114.5)" style="font-family: sans-serif; font-size: 10px; fill: #000; opacity: 1;">Not Canceled</text></g><g class="mark-rule role-axis-domain" style="pointer-events: none;"><line transform="translate(0,0)" x2="0" y2="150" style="fill: none; stroke: #888; stroke-width: 1; opacity: 1;"></line></g></g></g></g></g></g></g><g class="mark-group role-scope child__repeat_repeat_customer_type_group"><g transform="translate(576,314)"><path class="background" d="M0.5,0.5h150v150h-150Z" style="fill: none; stroke: #ddd;"></path><g><g class="mark-rect role-mark child__repeat_repeat_customer_type_marks"><path d="M112.5,75h37.5v75h-37.5Z" style="fill: rgb(169, 221, 183);"></path><path d="M75,75h37.5v75h-37.5Z" style="fill: rgb(33, 127, 183);"></path><path d="M75,0h37.5v75h-37.5Z" style="fill: rgb(73, 182, 194);"></path><path d="M112.5,0h37.5v75h-37.5Z" style="fill: rgb(222, 242, 181);"></path><path d="M0,75h37.5v75h-37.5Z" style="fill: rgb(232, 246, 186);"></path><path d="M0,0h37.5v75h-37.5Z" style="fill: rgb(236, 248, 187);"></path><path d="M37.5,75h37.5v75h-37.5Z" style="fill: rgb(238, 248, 188);"></path><path d="M37.5,0h37.5v75h-37.5Z" style="fill: rgb(239, 249, 189);"></path></g><g class="mark-group role-axis"><g transform="translate(0.5,150.5)"><path class="background" d="M0,0h0v0h0Z" style="pointer-events: none; fill: none;"></path><g><g class="mark-rule role-axis-tick" style="pointer-events: none;"><line transform="translate(18,0)" x2="0" y2="5" style="fill: none; stroke: #888; stroke-width: 1; opacity: 1;"></line><line transform="translate(55,0)" x2="0" y2="5" style="fill: none; stroke: #888; stroke-width: 1; opacity: 1;"></line><line transform="translate(93,0)" x2="0" y2="5" style="fill: none; stroke: #888; stroke-width: 1; opacity: 1;"></line><line transform="translate(130,0)" x2="0" y2="5" style="fill: none; stroke: #888; stroke-width: 1; opacity: 1;"></line></g><g class="mark-text role-axis-label" style="pointer-events: none;"><text text-anchor="end" transform="translate(17.75,7) rotate(270) translate(0,3)" style="font-family: sans-serif; font-size: 10px; fill: #000; opacity: 1;">Contract</text><text text-anchor="end" transform="translate(55.25,7) rotate(270) translate(0,3)" style="font-family: sans-serif; font-size: 10px; fill: #000; opacity: 1;">Group</text><text text-anchor="end" transform="translate(92.75,7) rotate(270) translate(0,3)" style="font-family: sans-serif; font-size: 10px; fill: #000; opacity: 1;">Transient</text><text text-anchor="end" transform="translate(130.25,7) rotate(270) translate(0,3)" style="font-family: sans-serif; font-size: 10px; fill: #000; opacity: 1;">Transient-Party</text></g><g class="mark-rule role-axis-domain" style="pointer-events: none;"><line transform="translate(0,0)" x2="150" y2="0" style="fill: none; stroke: #888; stroke-width: 1; opacity: 1;"></line></g><g class="mark-text role-axis-title" style="pointer-events: none;"><text text-anchor="middle" transform="translate(75,140)" style="font-family: sans-serif; font-size: 11px; font-weight: bold; fill: #000; opacity: 1;">customer_type</text></g></g></g></g><g class="mark-group role-axis"><g transform="translate(0.5,0.5)"><path class="background" d="M0,0h0v0h0Z" style="pointer-events: none; fill: none;"></path><g><g class="mark-rule role-axis-tick" style="pointer-events: none;"><line transform="translate(0,37)" x2="-5" y2="0" style="fill: none; stroke: #888; stroke-width: 1; opacity: 1;"></line><line transform="translate(0,112)" x2="-5" y2="0" style="fill: none; stroke: #888; stroke-width: 1; opacity: 1;"></line></g><g class="mark-text role-axis-label" style="pointer-events: none;"><text text-anchor="end" transform="translate(-7,39.5)" style="font-family: sans-serif; font-size: 10px; fill: #000; opacity: 1;">Canceled</text><text text-anchor="end" transform="translate(-7,114.5)" style="font-family: sans-serif; font-size: 10px; fill: #000; opacity: 1;">Not Canceled</text></g><g class="mark-rule role-axis-domain" style="pointer-events: none;"><line transform="translate(0,0)" x2="0" y2="150" style="fill: none; stroke: #888; stroke-width: 1; opacity: 1;"></line></g></g></g></g></g></g></g><g class="mark-group role-scope child__repeat_repeat_is_repeated_guest_group"><g transform="translate(864,314)"><path class="background" d="M0.5,0.5h150v150h-150Z" style="fill: none; stroke: #ddd;"></path><g><g class="mark-rect role-mark child__repeat_repeat_is_repeated_guest_marks"><path d="M0,75h75v75h-75Z" style="fill: rgb(31, 58, 142);"></path><path d="M0,0h75v75h-75Z" style="fill: rgb(48, 161, 192);"></path><path d="M75,0h75v75h-75Z" style="fill: rgb(237, 248, 188);"></path><path d="M75,75h75v75h-75Z" style="fill: rgb(230, 246, 185);"></path></g><g class="mark-group role-axis"><g transform="translate(0.5,150.5)"><path class="background" d="M0,0h0v0h0Z" style="pointer-events: none; fill: none;"></path><g><g class="mark-rule role-axis-tick" style="pointer-events: none;"><line transform="translate(37,0)" x2="0" y2="5" style="fill: none; stroke: #888; stroke-width: 1; opacity: 1;"></line><line transform="translate(112,0)" x2="0" y2="5" style="fill: none; stroke: #888; stroke-width: 1; opacity: 1;"></line></g><g class="mark-text role-axis-label" style="pointer-events: none;"><text text-anchor="end" transform="translate(36.5,7) rotate(270) translate(0,3)" style="font-family: sans-serif; font-size: 10px; fill: #000; opacity: 1;">0</text><text text-anchor="end" transform="translate(111.5,7) rotate(270) translate(0,3)" style="font-family: sans-serif; font-size: 10px; fill: #000; opacity: 1;">1</text></g><g class="mark-rule role-axis-domain" style="pointer-events: none;"><line transform="translate(0,0)" x2="150" y2="0" style="fill: none; stroke: #888; stroke-width: 1; opacity: 1;"></line></g><g class="mark-text role-axis-title" style="pointer-events: none;"><text text-anchor="middle" transform="translate(75,28)" style="font-family: sans-serif; font-size: 11px; font-weight: bold; fill: #000; opacity: 1;">is_repeated_guest</text></g></g></g></g><g class="mark-group role-axis"><g transform="translate(0.5,0.5)"><path class="background" d="M0,0h0v0h0Z" style="pointer-events: none; fill: none;"></path><g><g class="mark-rule role-axis-tick" style="pointer-events: none;"><line transform="translate(0,37)" x2="-5" y2="0" style="fill: none; stroke: #888; stroke-width: 1; opacity: 1;"></line><line transform="translate(0,112)" x2="-5" y2="0" style="fill: none; stroke: #888; stroke-width: 1; opacity: 1;"></line></g><g class="mark-text role-axis-label" style="pointer-events: none;"><text text-anchor="end" transform="translate(-7,39.5)" style="font-family: sans-serif; font-size: 10px; fill: #000; opacity: 1;">Canceled</text><text text-anchor="end" transform="translate(-7,114.5)" style="font-family: sans-serif; font-size: 10px; fill: #000; opacity: 1;">Not Canceled</text></g><g class="mark-rule role-axis-domain" style="pointer-events: none;"><line transform="translate(0,0)" x2="0" y2="150" style="fill: none; stroke: #888; stroke-width: 1; opacity: 1;"></line></g></g></g></g></g></g></g><g class="mark-group role-legend"><g transform="translate(1046,0)"><path class="background" d="M0,0h176v166h-176Z" style="pointer-events: none; fill: none;"></path><g><g class="mark-group role-legend-entry"><g transform="translate(0,16)"><path class="background" d="M0,0h0v0h0Z" style="pointer-events: none; fill: none;"></path><g><g class="mark-rect role-legend-gradient" style="pointer-events: none;"><path d="M0,0h16v150h-16Z" style="fill: url(#gradient_0); stroke: #ddd; stroke-width: 0; opacity: 1;"></path></g><g class="mark-text role-legend-label" style="pointer-events: none;"><text text-anchor="start" transform="translate(18,148)" style="font-family: sans-serif; font-size: 10px; fill: #000; opacity: 1;">1</text><text text-anchor="start" transform="translate(18,8)" style="font-family: sans-serif; font-size: 10px; fill: #000; opacity: 1;">59,888</text></g></g></g></g><g class="mark-text role-legend-title" style="pointer-events: none;"><text text-anchor="start" transform="translate(0,9)" style="font-family: sans-serif; font-size: 11px; font-weight: bold; fill: #000; opacity: 1;">Number of Observati…</text></g></g></g></g></g></g></g></g></svg>