<svg class="marks" width="730" height="225" viewBox="0 0 730 225" version="1.1" xmlns="http://www.w3.org/2000/svg" xmlns:xlink="http://www.w3.org/1999/xlink"><rect width="730" height="225" style="fill: white;"></rect><defs><linearGradient id="gradient_0" x1="0" x2="0" y1="1" y2="0"><stop offset="0" stop-color="rgb(65, 20, 105)"></stop><stop offset="0.04999999999999999" stop-color="rgb(84, 45, 128)"></stop><stop offset="0.09999999999999998" stop-color="rgb(102, 71, 150)"></stop><stop offset="0.15000000000000002" stop-color="rgb(123, 101, 167)"></stop><stop offset="0.2" stop-color="rgb(143, 131, 183)"></stop><stop offset="0.25" stop-color="rgb(164, 156, 199)"></stop><stop offset="0.3" stop-color="rgb(185, 180, 214)"></stop><stop offset="0.35" stop-color="rgb(202, 200, 225)"></stop><stop offset="0.4" stop-color="rgb(218, 219, 235)"></stop><stop offset="0.45" stop-color="rgb(231, 229, 235)"></stop><stop offset="0.5" stop-color="rgb(243, 238, 234)"></stop><stop offset="0.55" stop-color="rgb(248, 231, 210)"></stop><stop offset="0.6" stop-color="rgb(252, 224, 186)"></stop><stop offset="0.65" stop-color="rgb(252, 208, 151)"></stop><stop offset="0.7" stop-color="rgb(251, 191, 116)"></stop><stop offset="0.75" stop-color="rgb(242, 169, 82)"></stop><stop offset="0.8" stop-color="rgb(232, 147, 47)"></stop><stop offset="0.85" stop-color="rgb(215, 126, 30)"></stop><stop offset="0.9" stop-color="rgb(197, 105, 13)"></stop><stop offset="0.95" stop-color="rgb(175, 90, 10)"></stop><stop offset="1" stop-color="rgb(153, 74, 7)"></stop></linearGradient></defs><g transform="translate(80,29)"><g class="mark-group role-frame root"><g transform="translate(0,0)"><path class="background" d="M0.5,0.5h600v20h-600Z" style="fill: none; stroke: #ddd;"></path><g><g class="mark-rect role-mark layer_0_marks"><path d="M330,0h30v20h-30Z" style="fill: rgb(153, 74, 7);"></path><path d="M390,0h30v20h-30Z" style="fill: rgb(252, 208, 153);"></path><path d="M150,0h30v20h-30Z" style="fill: rgb(244, 237, 231);"></path><path d="M120,0h30v20h-30Z" style="fill: rgb(243, 237, 232);"></path><path d="M90,0h30v20h-30Z" style="fill: rgb(242, 237, 234);"></path><path d="M540,0h30v20h-30Z" style="fill: rgb(243, 238, 234);"></path><path d="M510,0h30v20h-30Z" style="fill: rgb(244, 236, 227);"></path><path d="M30,0h30v20h-30Z" style="fill: rgb(246, 234, 220);"></path><path d="M240,0h30v20h-30Z" style="fill: rgb(243, 238, 233);"></path><path d="M180,0h30v20h-30Z" style="fill: rgb(239, 235, 234);"></path><path d="M360,0h30v20h-30Z" style="fill: rgb(233, 230, 234);"></path><path d="M450,0h30v20h-30Z" style="fill: rgb(248, 230, 207);"></path><path d="M420,0h30v20h-30Z" style="fill: rgb(236, 233, 234);"></path><path d="M210,0h30v20h-30Z" style="fill: rgb(225, 225, 235);"></path><path d="M60,0h30v20h-30Z" style="fill: rgb(233, 230, 234);"></path><path d="M270,0h30v20h-30Z" style="fill: rgb(239, 235, 234);"></path><path d="M300,0h30v20h-30Z" style="fill: rgb(245, 234, 221);"></path><path d="M0,0h30v20h-30Z" style="fill: rgb(245, 235, 223);"></path><path d="M480,0h30v20h-30Z" style="fill: rgb(219, 220, 235);"></path><path d="M570,0h30v20h-30Z" style="fill: rgb(212, 212, 231);"></path></g><g class="mark-text role-mark layer_1_marks"><text text-anchor="middle" transform="translate(345,12)" style="font-family: sans-serif; font-size: 8px; fill: black;">1</text><text text-anchor="middle" transform="translate(405,12)" style="font-family: sans-serif; font-size: 8px; fill: black;">0.29</text><text text-anchor="middle" transform="translate(165,12)" style="font-family: sans-serif; font-size: 8px; fill: black;">0.01</text><text text-anchor="middle" transform="translate(135,12)" style="font-family: sans-serif; font-size: 8px; fill: black;">0.01</text><text text-anchor="middle" transform="translate(105,12)" style="font-family: sans-serif; font-size: 8px; fill: black;">-0.01</text><text text-anchor="middle" transform="translate(555,12)" style="font-family: sans-serif; font-size: 8px; fill: black;">0</text><text text-anchor="middle" transform="translate(525,12)" style="font-family: sans-serif; font-size: 8px; fill: black;">0.03</text><text text-anchor="middle" transform="translate(45,12)" style="font-family: sans-serif; font-size: 8px; fill: black;">0.06</text><text text-anchor="middle" transform="translate(255,12)" style="font-family: sans-serif; font-size: 8px; fill: black;">0</text><text text-anchor="middle" transform="translate(195,12)" style="font-family: sans-serif; font-size: 8px; fill: black;">-0.03</text><text text-anchor="middle" transform="translate(375,12)" style="font-family: sans-serif; font-size: 8px; fill: black;">-0.08</text><text text-anchor="middle" transform="translate(465,12)" style="font-family: sans-serif; font-size: 8px; fill: black;">0.11</text><text text-anchor="middle" transform="translate(435,12)" style="font-family: sans-serif; font-size: 8px; fill: black;">-0.06</text><text text-anchor="middle" transform="translate(225,12)" style="font-family: sans-serif; font-size: 8px; fill: black;">-0.14</text><text text-anchor="middle" transform="translate(75,12)" style="font-family: sans-serif; font-size: 8px; fill: black;">-0.08</text><text text-anchor="middle" transform="translate(285,12)" style="font-family: sans-serif; font-size: 8px; fill: black;">-0.03</text><text text-anchor="middle" transform="translate(315,12)" style="font-family: sans-serif; font-size: 8px; fill: black;">0.05</text><text text-anchor="middle" transform="translate(15,12)" style="font-family: sans-serif; font-size: 8px; fill: black;">0.05</text><text text-anchor="middle" transform="translate(495,12)" style="font-family: sans-serif; font-size: 8px; fill: black;">-0.19</text><text text-anchor="middle" transform="translate(585,12)" style="font-family: sans-serif; font-size: 8px; fill: black;">-0.24</text></g><g class="mark-group role-legend"><g transform="translate(618,0)"><path class="background" d="M0,0h27v80h-27Z" style="pointer-events: none; fill: none;"></path><g><g class="mark-group role-legend-entry"><g transform="translate(0,16)"><path class="background" d="M0,0h0v0h0Z" style="pointer-events: none; fill: none;"></path><g><g class="mark-rect role-legend-gradient" style="pointer-events: none;"><path d="M0,0h16v64h-16Z" style="fill: url(#gradient_0); stroke: #ddd; stroke-width: 0; opacity: 1;"></path></g><g class="mark-text role-legend-label" style="pointer-events: none;"><text text-anchor="start" transform="translate(18,62)" style="font-family: sans-serif; font-size: 10px; fill: #000; opacity: 1;">-1</text><text text-anchor="start" transform="translate(18,35)" style="font-family: sans-serif; font-size: 10px; fill: #000; opacity: 1;">0</text><text text-anchor="start" transform="translate(18,8)" style="font-family: sans-serif; font-size: 10px; fill: #000; opacity: 1;">1</text></g></g><path class="foreground" d="" style="pointer-events: none; display: none; fill: none;"></path></g></g><g class="mark-text role-legend-title" style="pointer-events: none;"><text text-anchor="start" transform="translate(0,9)" style="font-family: sans-serif; font-size: 11px; font-weight: bold; fill: #000; opacity: 1;">corr</text></g></g><path class="foreground" d="" style="pointer-events: none; display: none; fill: none;"></path></g></g><g class="mark-group role-title"><g transform="translate(300,-23.400634765625)"><path class="background" d="M0,0h0v0h0Z" style="pointer-events: none; fill: none;"></path><g><g class="mark-text role-title-text" style="pointer-events: none;"><text text-anchor="middle" transform="translate(0,10)" style="font-family: sans-serif; font-size: 13px; font-weight: bold; fill: #000; opacity: 1;">Feature Correlation</text></g></g><path class="foreground" d="" style="pointer-events: none; display: none; fill: none;"></path></g></g><g class="mark-group role-axis"><g transform="translate(0.5,20.5)"><path class="background" d="M0,0h0v0h0Z" style="pointer-events: none; fill: none;"></path><g><g class="mark-rule role-axis-tick" style="pointer-events: none;"><line transform="translate(15,0)" x2="0" y2="5" style="fill: none; stroke: #888; stroke-width: 1; opacity: 1;"></line><line transform="translate(45,0)" x2="0" y2="5" style="fill: none; stroke: #888; stroke-width: 1; opacity: 1;"></line><line transform="translate(75,0)" x2="0" y2="5" style="fill: none; stroke: #888; stroke-width: 1; opacity: 1;"></line><line transform="translate(105,0)" x2="0" y2="5" style="fill: none; stroke: #888; stroke-width: 1; opacity: 1;"></line><line transform="translate(135,0)" x2="0" y2="5" style="fill: none; stroke: #888; stroke-width: 1; opacity: 1;"></line><line transform="translate(165,0)" x2="0" y2="5" style="fill: none; stroke: #888; stroke-width: 1; opacity: 1;"></line><line transform="translate(195,0)" x2="0" y2="5" style="fill: none; stroke: #888; stroke-width: 1; opacity: 1;"></line><line transform="translate(225,0)" x2="0" y2="5" style="fill: none; stroke: #888; stroke-width: 1; opacity: 1;"></line><line transform="translate(255,0)" x2="0" y2="5" style="fill: none; stroke: #888; stroke-width: 1; opacity: 1;"></line><line transform="translate(285,0)" x2="0" y2="5" style="fill: none; stroke: #888; stroke-width: 1; opacity: 1;"></line><line transform="translate(315,0)" x2="0" y2="5" style="fill: none; stroke: #888; stroke-width: 1; opacity: 1;"></line><line transform="translate(345,0)" x2="0" y2="5" style="fill: none; stroke: #888; stroke-width: 1; opacity: 1;"></line><line transform="translate(375,0)" x2="0" y2="5" style="fill: none; stroke: #888; stroke-width: 1; opacity: 1;"></line><line transform="translate(405,0)" x2="0" y2="5" style="fill: none; stroke: #888; stroke-width: 1; opacity: 1;"></line><line transform="translate(435,0)" x2="0" y2="5" style="fill: none; stroke: #888; stroke-width: 1; opacity: 1;"></line><line transform="translate(465,0)" x2="0" y2="5" style="fill: none; stroke: #888; stroke-width: 1; opacity: 1;"></line><line transform="translate(495,0)" x2="0" y2="5" style="fill: none; stroke: #888; stroke-width: 1; opacity: 1;"></line><line transform="translate(525,0)" x2="0" y2="5" style="fill: none; stroke: #888; stroke-width: 1; opacity: 1;"></line><line transform="translate(555,0)" x2="0" y2="5" style="fill: none; stroke: #888; stroke-width: 1; opacity: 1;"></line><line transform="translate(585,0)" x2="0" y2="5" style="fill: none; stroke: #888; stroke-width: 1; opacity: 1;"></line></g><g class="mark-text role-axis-label" style="pointer-events: none;"><text text-anchor="end" transform="translate(14.5,7) rotate(270) translate(0,3)" style="font-family: sans-serif; font-size: 10px; fill: #000; opacity: 1;">adr</text><text text-anchor="end" transform="translate(44.5,7) rotate(270) translate(0,3)" style="font-family: sans-serif; font-size: 10px; fill: #000; opacity: 1;">adults</text><text text-anchor="end" transform="translate(74.5,7) rotate(270) translate(0,3)" style="font-family: sans-serif; font-size: 10px; fill: #000; opacity: 1;">agent</text><text text-anchor="end" transform="translate(104.5,7) rotate(270) translate(0,3)" style="font-family: sans-serif; font-size: 10px; fill: #000; opacity: 1;">arrival_date_day_of_month</text><text text-anchor="end" transform="translate(134.5,7) rotate(270) translate(0,3)" style="font-family: sans-serif; font-size: 10px; fill: #000; opacity: 1;">arrival_date_week_number</text><text text-anchor="end" transform="translate(164.5,7) rotate(270) translate(0,3)" style="font-family: sans-serif; font-size: 10px; fill: #000; opacity: 1;">arrival_date_year</text><text text-anchor="end" transform="translate(194.5,7) rotate(270) translate(0,3)" style="font-family: sans-serif; font-size: 10px; fill: #000; opacity: 1;">babies</text><text text-anchor="end" transform="translate(224.5,7) rotate(270) translate(0,3)" style="font-family: sans-serif; font-size: 10px; fill: #000; opacity: 1;">booking_changes</text><text text-anchor="end" transform="translate(254.5,7) rotate(270) translate(0,3)" style="font-family: sans-serif; font-size: 10px; fill: #000; opacity: 1;">children</text><text text-anchor="end" transform="translate(284.5,7) rotate(270) translate(0,3)" style="font-family: sans-serif; font-size: 10px; fill: #000; opacity: 1;">company</text><text text-anchor="end" transform="translate(314.5,7) rotate(270) translate(0,3)" style="font-family: sans-serif; font-size: 10px; fill: #000; opacity: 1;">days_in_waiting_list</text><text text-anchor="end" transform="translate(344.5,7) rotate(270) translate(0,3)" style="font-family: sans-serif; font-size: 10px; fill: #000; opacity: 1;">is_canceled</text><text text-anchor="end" transform="translate(374.5,7) rotate(270) translate(0,3)" style="font-family: sans-serif; font-size: 10px; fill: #000; opacity: 1;">is_repeated_guest</text><text text-anchor="end" transform="translate(404.5,7) rotate(270) translate(0,3)" style="font-family: sans-serif; font-size: 10px; fill: #000; opacity: 1;">lead_time</text><text text-anchor="end" transform="translate(434.5,7) rotate(270) translate(0,3)" style="font-family: sans-serif; font-size: 10px; fill: #000; opacity: 1;">previous_bookings_not_canceled</text><text text-anchor="end" transform="translate(464.5,7) rotate(270) translate(0,3)" style="font-family: sans-serif; font-size: 10px; fill: #000; opacity: 1;">previous_cancellations</text><text text-anchor="end" transform="translate(494.5,7) rotate(270) translate(0,3)" style="font-family: sans-serif; font-size: 10px; fill: #000; opacity: 1;">required_car_parking_spaces</text><text text-anchor="end" transform="translate(524.5,7) rotate(270) translate(0,3)" style="font-family: sans-serif; font-size: 10px; fill: #000; opacity: 1;">stays_in_week_nights</text><text text-anchor="end" transform="translate(554.5,7) rotate(270) translate(0,3)" style="font-family: sans-serif; font-size: 10px; fill: #000; opacity: 1;">stays_in_weekend_nights</text><text text-anchor="end" transform="translate(584.5,7) rotate(270) translate(0,3)" style="font-family: sans-serif; font-size: 10px; fill: #000; opacity: 1;">total_of_special_requests</text></g><g class="mark-rule role-axis-domain" style="pointer-events: none;"><line transform="translate(0,0)" x2="600" y2="0" style="fill: none; stroke: #888; stroke-width: 1; opacity: 1;"></line></g><g class="mark-text role-axis-title" style="pointer-events: none;"><text text-anchor="middle" transform="translate(300,168.4423828125)" style="font-family: sans-serif; font-size: 11px; font-weight: bold; fill: #000; opacity: 1;">Features</text></g></g><path class="foreground" d="" style="pointer-events: none; display: none; fill: none;"></path></g></g><g class="mark-group role-axis"><g transform="translate(0.5,0.5)"><path class="background" d="M0,0h0v0h0Z" style="pointer-events: none; fill: none;"></path><g><g class="mark-rule role-axis-tick" style="pointer-events: none;"><line transform="translate(0,10)" x2="-5" y2="0" style="fill: none; stroke: #888; stroke-width: 1; opacity: 1;"></line></g><g class="mark-text role-axis-label" style="pointer-events: none;"><text text-anchor="end" transform="translate(-7,12.5)" style="font-family: sans-serif; font-size: 10px; fill: #000; opacity: 1;">is_canceled</text></g><g class="mark-rule role-axis-domain" style="pointer-events: none;"><line transform="translate(0,0)" x2="0" y2="20" style="fill: none; stroke: #888; stroke-width: 1; opacity: 1;"></line></g><g class="mark-text role-axis-title" style="pointer-events: none;"><text text-anchor="middle" transform="translate(-63.8125,10) rotate(-90) translate(0,-2)" style="font-family: sans-serif; font-size: 11px; font-weight: bold; fill: #000; opacity: 1;">Target</text></g></g><path class="foreground" d="" style="pointer-events: none; display: none; fill: none;"></path></g></g></g><path class="foreground" d="" style="display: none; fill: none;"></path></g></g></g></svg>